<svg xmlns="http://www.w3.org/2000/svg" xmlns:xlink="http://www.w3.org/1999/xlink" viewBox="0 0 38 38">
  <defs>
    <style>
      .cls-1 {
        clip-path: url(#clip-open-data);
      }

      .cls-2, .cls-4 {
        fill: none;
      }

      .cls-2 {
        stroke: #202326;
        stroke-width: 2px;
      }

      .cls-3 {
        stroke: none;
      }
    </style>
    <clipPath id="clip-open-data">
      <rect width="38" height="38"/>
    </clipPath>
  </defs>
  <g id="open-data" class="cls-1">
    <g id="Group_2490" data-name="Group 2490">
      <g id="Ellipse_340" data-name="Ellipse 340" class="cls-2" transform="translate(15 15)">
        <circle class="cls-3" cx="6" cy="6" r="6"/>
        <circle class="cls-4" cx="6" cy="6" r="5"/>
      </g>
      <g id="Ellipse_341" data-name="Ellipse 341" class="cls-2" transform="translate(6 2)">
        <circle class="cls-3" cx="4" cy="4" r="4"/>
        <circle class="cls-4" cx="4" cy="4" r="3"/>
      </g>
      <g id="Ellipse_344" data-name="Ellipse 344" class="cls-2" transform="translate(27.548 0.427) rotate(11)">
        <circle class="cls-3" cx="4" cy="4" r="4"/>
        <circle class="cls-4" cx="4" cy="4" r="3"/>
      </g>
      <g id="Ellipse_346" data-name="Ellipse 346" class="cls-2" transform="translate(12.528 31.341) rotate(-17)">
        <circle class="cls-3" cx="4" cy="4" r="4"/>
        <circle class="cls-4" cx="4" cy="4" r="3"/>
      </g>
      <g id="Ellipse_345" data-name="Ellipse 345" class="cls-2" transform="translate(29 21)">
        <circle class="cls-3" cx="4" cy="4" r="4"/>
        <circle class="cls-4" cx="4" cy="4" r="3"/>
      </g>
      <g id="Ellipse_347" data-name="Ellipse 347" class="cls-2" transform="translate(2 19)">
        <circle class="cls-3" cx="4" cy="4" r="4"/>
        <circle class="cls-4" cx="4" cy="4" r="3"/>
      </g>
      <line id="Line_660" data-name="Line 660" class="cls-2" x1="3" y2="5" transform="translate(16.764 26.386) rotate(-17)"/>
      <line id="Line_665" data-name="Line 665" class="cls-2" x1="7" y2="1" transform="translate(9.5 21.5)"/>
      <line id="Line_664" data-name="Line 664" class="cls-2" x2="4" y2="1" transform="translate(25.5 22.5)"/>
      <line id="Line_662" data-name="Line 662" class="cls-2" y1="10.047" x2="6.401" transform="translate(23.099 7.5)"/>
      <line id="Line_663" data-name="Line 663" class="cls-2" x1="6" y1="8" transform="translate(11.5 8.5)"/>
    </g>
  </g>
</svg>
