<svg xmlns="http://www.w3.org/2000/svg" xmlns:xlink="http://www.w3.org/1999/xlink" viewBox="0 0 38 38">
  <defs>
    <style>
      .cls-1 {
        clip-path: url(#clip-data-services);
      }

      .cls-2 {
        fill: none;
        stroke: #202326;
        stroke-miterlimit: 10;
        stroke-width: 2px;
      }

      .cls-3 {
        fill: #fff;
      }
    </style>
    <clipPath id="clip-data-services">
      <rect width="38" height="38"/>
    </clipPath>
  </defs>
  <g id="data-services" class="cls-1">
    <rect class="cls-3" width="38" height="38"/>
    <circle id="Ellipse_1" data-name="Ellipse 1" class="cls-2" cx="4" cy="4" r="4" transform="translate(6 7)"/>
    <circle id="Ellipse_2" data-name="Ellipse 2" class="cls-2" cx="4" cy="4" r="4" transform="translate(6 23)"/>
    <rect id="Rectangle_2" data-name="Rectangle 2" class="cls-2" width="5" height="15" transform="translate(28.078 11.53)"/>
    <path id="Path_2" data-name="Path 2" class="cls-2" d="M19,21h4.091a2.882,2.882,0,0,1,2.727,3h0a2.882,2.882,0,0,0,2.727,3h4.01" transform="translate(-4.5 -9.791)"/>
    <path id="Path_3" data-name="Path 3" class="cls-2" d="M34,28H29.909a2.882,2.882,0,0,0-2.727,3h0a2.882,2.882,0,0,1-2.727,3H19" transform="translate(-5.5 -7)"/>
  </g>
</svg>
