<svg xmlns="http://www.w3.org/2000/svg" xmlns:xlink="http://www.w3.org/1999/xlink" viewBox="0 0 38 38">
  <defs>
    <style>
      .cls-1 {
        clip-path: url(#clip-fa3-white);
      }

      .cls-2 {
        fill: none;
        stroke: #fff;
        stroke-miterlimit: 10;
        stroke-width: 2px;
      }
    </style>
    <clipPath id="clip-fa3-white">
      <rect width="38" height="38"/>
    </clipPath>
  </defs>
  <g id="fa3-white" class="cls-1">
    <path id="Path_4" data-name="Path 4" class="cls-2" d="M25.583,8H8.958A3.97,3.97,0,0,0,5,11.958v8.629a3.982,3.982,0,0,0,3.167,3.879v3.958a.755.755,0,0,0,1.267.554l4.354-4.354h11.8a3.97,3.97,0,0,0,3.958-3.958V11.958A3.92,3.92,0,0,0,25.583,8Z" transform="translate(-1 -3)"/>
    <path id="Path_5" data-name="Path 5" class="cls-2" d="M32.642,23.1h2.8A2.528,2.528,0,0,1,38,25.662v5.925a2.439,2.439,0,0,1-2.08,2.482v2.562c0,.4-.56.641-.8.32l-2.88-2.882H24.56A2.528,2.528,0,0,1,22,31.507V26.175" transform="translate(-4 -4.1)"/>
  </g>
</svg>
