<svg xmlns="http://www.w3.org/2000/svg" xmlns:xlink="http://www.w3.org/1999/xlink" viewBox="0 0 38 38">
  <defs>
    <style>
      .cls-1 {
        clip-path: url(#clip-fa5-white);
      }

      .cls-2, .cls-3 {
        fill: #fff;
      }

      .cls-3, .cls-4 {
        fill-rule: evenodd;
      }

      .cls-4 {
        fill: rgba(0,0,0,0);
        stroke: #fff;
        stroke-miterlimit: 10;
        stroke-width: 2px;
      }
    </style>
    <clipPath id="clip-fa5-white">
      <rect width="38" height="38"/>
    </clipPath>
  </defs>
  <g id="fa5-white" class="cls-1">
    <g id="Group_8" data-name="Group 8" transform="translate(14.804 14.641)">
      <path id="Path_7" data-name="Path 7" class="cls-2" d="M27.13,20.691,25.444,21.7a3.734,3.734,0,0,0-.843-1.012,2.369,2.369,0,0,0-2.529.253,1.61,1.61,0,0,0-.59,1.18c0,.674.506,1.18,1.433,1.6l1.349.59a5.789,5.789,0,0,1,2.36,1.6,3.768,3.768,0,0,1,.759,2.36,3.883,3.883,0,0,1-1.264,3.035A4.128,4.128,0,0,1,23,32.492a4.106,4.106,0,0,1-2.866-1.012A5.141,5.141,0,0,1,18.7,28.53l2.023-.421a2.955,2.955,0,0,0,.506,1.6,2.073,2.073,0,0,0,1.855.843,2.158,2.158,0,0,0,1.6-.674,2.1,2.1,0,0,0,.59-1.6,2.334,2.334,0,0,0-.084-.759,1.359,1.359,0,0,0-.337-.59,3.667,3.667,0,0,0-.59-.506A2.637,2.637,0,0,0,23.421,26L22.156,25.5c-1.855-.759-2.782-1.939-2.782-3.456a3.283,3.283,0,0,1,1.18-2.529A4.254,4.254,0,0,1,23.421,18.5,3.834,3.834,0,0,1,27.13,20.691Z" transform="translate(-18.7 -18.492)"/>
    </g>
    <g id="Group_2479" data-name="Group 2479">
      <path id="Path_9" data-name="Path 9" class="cls-3" d="M28,7.7l6.571,6.571H28Z" transform="translate(-5.833 -1.604)"/>
    </g>
    <rect id="Rectangle_13" data-name="Rectangle 13" class="cls-2" width="2" height="17" transform="translate(18 13)"/>
    <path id="Path_583" data-name="Path 583" class="cls-4" d="M12,7.5v27H32V13.473L25.917,7.5Z" transform="translate(-3 -1.5)"/>
  </g>
</svg>
