<svg xmlns="http://www.w3.org/2000/svg" xmlns:xlink="http://www.w3.org/1999/xlink" viewBox="0 0 38 38">
  <defs>
    <style>
      .cls-1 {
        clip-path: url(#clip-key-insights);
      }

      .cls-2, .cls-5 {
        fill: none;
      }

      .cls-2 {
        stroke: #202326;
        stroke-width: 2px;
      }

      .cls-3 {
        fill: #202326;
      }

      .cls-4 {
        stroke: none;
      }
    </style>
    <clipPath id="clip-key-insights">
      <rect width="38" height="38"/>
    </clipPath>
  </defs>
  <g id="key-insights" class="cls-1">
    <g id="Group_2489" data-name="Group 2489">
      <g id="Ellipse_348" data-name="Ellipse 348" class="cls-2" transform="translate(3 4)">
        <circle class="cls-4" cx="14" cy="14" r="14"/>
        <circle class="cls-5" cx="14" cy="14" r="13"/>
      </g>
      <path id="Path_586" data-name="Path 586" class="cls-2" d="M17.016,15.278a9.152,9.152,0,0,1-7.507,3.686,9.88,9.88,0,0,1-5.941-2.1,9.235,9.235,0,0,1-3.557-7.4A9.785,9.785,0,0,1,2.165,3.437" transform="translate(20.256 4.929) rotate(60)"/>
      <path id="Path_587" data-name="Path 587" class="cls-2" d="M-2680.608-16370.853l6.161,6.161,3.312-3.312-6.226-6.227" transform="translate(2705 16400)"/>
      <line id="Line_666" data-name="Line 666" class="cls-2" y1="4" x2="4" transform="translate(25.5 27.5)"/>
      <path id="Path_589" data-name="Path 589" class="cls-3" d="M-2654.884-16435.332l-14.4,13.83h5.507l-3.536,9.7,12.432-12.609h-4.16Z" transform="translate(2684.419 16439.893)"/>
    </g>
  </g>
</svg>
