<svg xmlns="http://www.w3.org/2000/svg" xmlns:xlink="http://www.w3.org/1999/xlink" viewBox="0 0 321 70">
  <defs>
    <style>
      .cls-1 {
        clip-path: url(#clip-logo);
      }

      .cls-2 {
        fill: #feb8a9;
      }

      .cls-3 {
        fill: #ad9300;
      }

      .cls-4 {
        fill: #c6f5f1;
      }

      .cls-5 {
        fill: #b4e1ea;
      }

      .cls-6 {
        fill: #14bee1;
      }

      .cls-7 {
        fill: #00a2c7;
      }

      .cls-8 {
        fill: #32b8ab;
      }

      .cls-9 {
        fill: #199f8b;
      }

      .cls-10 {
        fill: #fb6128;
      }

      .cls-11 {
        fill: #2956d1;
      }

      .cls-12 {
        fill: #624093;
      }

      .cls-13 {
        fill: #491c8b;
      }

      .cls-14 {
        fill: #202326;
      }

      .cls-15 {
        fill: #fff;
      }
    </style>
    <clipPath id="clip-logo">
      <rect width="321" height="70"/>
    </clipPath>
  </defs>
  <g id="logo" class="cls-1">
    <rect class="cls-15" width="321" height="70"/>
    <g id="Group_1650" data-name="Group 1650">
      <g id="Group_1617" data-name="Group 1617">
        <rect id="Screen_Shot_2018-06-15_at_2.21.08_PM" data-name="Screen Shot 2018-06-15 at 2.21.08 PM" class="cls-2" width="91" height="35" transform="translate(11 35)"/>
        <rect id="Screen_Shot_2018-06-15_at_2.21.08_PM-2" data-name="Screen Shot 2018-06-15 at 2.21.08 PM" class="cls-3" width="45" height="35"/>
        <rect id="Screen_Shot_2018-06-15_at_2.21.08_PM-3" data-name="Screen Shot 2018-06-15 at 2.21.08 PM" class="cls-4" width="34" height="19" transform="translate(0 35)"/>
        <path id="Screen_Shot_2018-06-15_at_2.21.08_PM-4" data-name="Screen Shot 2018-06-15 at 2.21.08 PM" class="cls-5" d="M0,0,42,55H0Z" transform="translate(137 15)"/>
        <path id="Screen_Shot_2018-06-15_at_2.21.08_PM-5" data-name="Screen Shot 2018-06-15 at 2.21.08 PM" class="cls-6" d="M35,0V35H0Z" transform="translate(102 35)"/>
        <path id="Screen_Shot_2018-06-15_at_2.21.08_PM-6" data-name="Screen Shot 2018-06-15 at 2.21.08 PM" class="cls-7" d="M20,0V20H0Z" transform="translate(122 70) rotate(180)"/>
        <path id="Path_126" data-name="Path 126" class="cls-8" d="M55.1,24.4a35.012,35.012,0,0,1-35,35v-35" transform="translate(63.071 59.4) rotate(180)"/>
        <path id="Path_127" data-name="Path 127" class="cls-9" d="M55.129,24.4a35.012,35.012,0,0,1-35,35v-35" transform="translate(-12.129 10.6)"/>
        <path id="Path_128" data-name="Path 128" class="cls-10" d="M1,21.217a14,14,0,0,1,0,28H0v21H1c18.78,0,34-15.75,34-35s-15.22-35-34-35H0v21Z" transform="translate(67 -0.217)"/>
        <path id="Path_129" data-name="Path 129" class="cls-11" d="M92.7,6.836c-19.25,0-35,15.22-35,34v1h21v-1c0-7.683,6.125-13,14-13Z" transform="translate(44.3 -6.836)"/>
        <rect id="Screen_Shot_2018-06-15_at_2.21.08_PM-7" data-name="Screen Shot 2018-06-15 at 2.21.08 PM" class="cls-12" width="24" height="70" transform="translate(43)"/>
        <rect id="Screen_Shot_2018-06-15_at_2.21.08_PM-8" data-name="Screen Shot 2018-06-15 at 2.21.08 PM" class="cls-13" width="24" height="35" transform="translate(43 35)"/>
      </g>
    </g>
    <g id="Group_2012" data-name="Group 2012" transform="translate(3 -9)">
      <path id="Path_584" data-name="Path 584" class="cls-14" d="M2.992-5.488A3.282,3.282,0,0,1,6.24-8.832,3.3,3.3,0,0,1,9.5-5.488,3.282,3.282,0,0,1,6.24-2.16,3.268,3.268,0,0,1,2.992-5.488Zm-2.336,0A5.6,5.6,0,0,0,6.24.16a5.606,5.606,0,0,0,5.6-5.648,5.6,5.6,0,0,0-5.6-5.664A5.6,5.6,0,0,0,.656-5.488ZM18.288-8.96a1.455,1.455,0,0,1,1.328,1.552,1.466,1.466,0,0,1-1.392,1.552H16.16v-3.1ZM13.808,0H16.16V-3.808h2.176a3.41,3.41,0,0,0,3.632-3.6,3.429,3.429,0,0,0-3.632-3.616H13.808Zm9.84,0h7.12V-2.064H25.984V-4.416h4.064V-6.448H25.984V-8.96h4.64v-2.064H23.648Zm17.5-11.024H38.8v6.592l-3.776-6.592H32.88V0h2.336V-6.672L39.056,0h2.1Zm15.68,1.68a5.454,5.454,0,0,0-4.144-1.808A5.62,5.62,0,0,0,47.04-5.488,5.627,5.627,0,0,0,52.688.16c3.168,0,5.376-1.824,5.376-5.952H52.4v1.9h2.96c-.016,1.168-1.488,1.9-2.672,1.9a3.4,3.4,0,0,1-3.3-3.5,3.377,3.377,0,0,1,3.3-3.488A3.206,3.206,0,0,1,55.1-7.856Zm4.656,3.856a3.282,3.282,0,0,1,3.248-3.344A3.3,3.3,0,0,1,68-5.488,3.282,3.282,0,0,1,64.736-2.16,3.268,3.268,0,0,1,61.488-5.488Zm-2.336,0A5.6,5.6,0,0,0,64.736.16a5.606,5.606,0,0,0,5.6-5.648,5.6,5.6,0,0,0-5.6-5.664A5.6,5.6,0,0,0,59.152-5.488Zm11.856-5.536L74.368,0h2.08l3.36-11.024H77.36L75.408-3.792,73.44-11.024ZM81.376,0H88.5V-2.064H83.712V-4.416h4.064V-6.448H83.712V-8.96h4.64v-2.064H81.376ZM95.008-8.96a1.455,1.455,0,0,1,1.328,1.552,1.466,1.466,0,0,1-1.392,1.552H92.96v-3.1ZM96.032-3.9a3.409,3.409,0,0,0,2.752-3.5,3.465,3.465,0,0,0-3.664-3.616H90.608V0H92.96V-3.808h.528L95.952,0h2.816Zm13.056-7.12h-2.352v6.592l-3.776-6.592h-2.144V0h2.336V-6.672L106.992,0h2.1Zm8.624,7.1-3.328-7.1h-1.936L111.088,0h2.352l.784-6.608,2.592,5.344h1.808L121.2-6.608,121.968,0h2.352l-1.344-11.024h-1.968ZM126.32,0h7.12V-2.064h-4.784V-4.416h4.064V-6.448h-4.064V-8.96h4.64v-2.064H126.32Zm17.5-11.024h-2.352v6.592L137.7-11.024h-2.144V0h2.336V-6.672L141.728,0h2.1Zm1.76,2.112h2.976V0h2.368V-8.912H153.9v-2.112h-8.32ZM3.632,9.1H5.616c1.76,0,2.64,1.584,2.64,3.408,0,1.808-.88,3.36-2.64,3.36H3.632ZM5.616,18c3.168,0,4.976-2.368,4.976-5.488,0-3.136-1.808-5.536-4.976-5.536H1.3V18Zm9.68-4.64,1.12-3.84,1.168,3.84Zm3.04,2.032L19.312,18h2.464L17.7,6.976H15.152L11.056,18h2.5l.976-2.608Zm2.944-6.3h2.976V18h2.368V9.088H29.6V6.976H21.28ZM33.328,13.36l1.12-3.84,1.168,3.84Zm3.04,2.032L37.344,18h2.464L35.728,6.976H33.184L29.088,18h2.5l.976-2.608Zm7.488-.624c0,1.984,1.6,3.408,4,3.408,1.952,0,3.936-1.04,3.968-3.232.032-1.056-.352-2.56-3.024-3.328L47.488,11.2c-1.072-.3-1.184-.832-1.184-1.12,0-.656.608-1.1,1.424-1.1.928,0,1.424.512,1.424,1.248h2.336c0-2.112-1.6-3.376-3.728-3.376-2.112,0-3.792,1.328-3.792,3.3,0,.992.416,2.416,2.848,3.168l1.328.368c1.12.32,1.344.752,1.328,1.248-.016.72-.672,1.168-1.616,1.168a1.463,1.463,0,0,1-1.648-1.328Zm14.1,1.184a1.874,1.874,0,0,1-1.9-1.888V6.976H53.664v7.088a4.276,4.276,0,0,0,8.544,0V6.976H59.856v7.088A1.883,1.883,0,0,1,57.952,15.952ZM69.1,9.04a1.455,1.455,0,0,1,1.328,1.552,1.466,1.466,0,0,1-1.392,1.552H67.056V9.04ZM70.128,14.1a3.409,3.409,0,0,0,2.752-3.5,3.465,3.465,0,0,0-3.664-3.616H64.7V18h2.352V14.192h.528L70.048,18h2.816Zm3.6-7.12L77.088,18h2.08l3.36-11.024H80.08l-1.952,7.232L76.16,6.976ZM84.1,18h7.12V15.936H86.432V13.584H90.5V11.552H86.432V9.04h4.64V6.976H84.1Zm14.336,0V13.04L102.7,6.976H99.92L97.232,11.1,94.576,6.976H91.792l4.256,6.032V18Z" transform="translate(147 41)"/>
    </g>
  </g>
</svg>
