<svg id="Layer_1" data-name="Layer 1" xmlns="http://www.w3.org/2000/svg" viewBox="0 0 309.06 70"><defs><clipPath id="clip-path" transform="translate(0)"><rect width="321" height="70" style="fill:none"/></clipPath></defs><title>logo</title><g style="clip-path:url(#clip-path)"><g id="logo-paths"><g id="Group_2540" data-name="Group 2540"><rect id="Screen_Shot_2018-06-15_at_2.21.08_PM" data-name="Screen Shot 2018-06-15 at 2.21.08 PM" width="35" height="35" style="fill:#b4e1ea"/><path id="Path_599" data-name="Path 599" d="M0,35C0,54.25,15.22,70,34,70h1V49H34c-7.68,0-13-6.13-13-14Z" transform="translate(0)" style="fill:#2956d1"/><rect id="Screen_Shot_2018-06-15_at_2.21.08_PM-2" data-name="Screen Shot 2018-06-15 at 2.21.08 PM-2" x="35" width="35" height="35" style="fill:#ad9300"/><rect id="Screen_Shot_2018-06-15_at_2.21.08_PM-3" data-name="Screen Shot 2018-06-15 at 2.21.08 PM-3" x="70" y="35" width="24" height="35" style="fill:#491c8b"/><rect id="Screen_Shot_2018-06-15_at_2.21.08_PM-4" data-name="Screen Shot 2018-06-15 at 2.21.08 PM-4" x="70" width="24" height="35" style="fill:#624093"/><path id="Path_600" data-name="Path 600" d="M70,70A35,35,0,0,1,35,35H70" transform="translate(0)" style="fill:#199f8b"/><path id="Path_601" data-name="Path 601" d="M35,0A35,35,0,0,1,70,35H35" transform="translate(0)" style="fill:#32b8ab"/><rect id="Screen_Shot_2018-06-15_at_2.21.08_PM-5" data-name="Screen Shot 2018-06-15 at 2.21.08 PM-5" x="94" y="35" width="35" height="35" style="fill:#feb8a9"/><path id="Screen_Shot_2018-06-15_at_2.21.08_PM-6" data-name="Screen Shot 2018-06-15 at 2.21.08 PM-6" d="M164,70,129,35V70Z" transform="translate(0)" style="fill:#faf5d5"/><g id="Group_2498" data-name="Group 2498"><path id="Path_672" data-name="Path 672" d="M143,27.51a3.28,3.28,0,0,1,3.22-3.34h0a3.3,3.3,0,0,1,3.26,3.34h0a3.28,3.28,0,0,1-3.24,3.33h0A3.27,3.27,0,0,1,143,27.55Zm-2.33,0a5.6,5.6,0,0,0,5.55,5.65h0a5.61,5.61,0,0,0,5.6-5.61v0a5.59,5.59,0,0,0-5.54-5.66h-.06a5.6,5.6,0,0,0-5.58,5.61ZM158.29,24a1.56,1.56,0,0,1,0,3.1h-2.08V24Zm-4.48,9h2.35V29.19h2.18A3.4,3.4,0,0,0,162,26a3.09,3.09,0,0,0,0-.43A3.42,3.42,0,0,0,158.74,22a2.67,2.67,0,0,0-.4,0h-4.53Zm9.84,0h7.12V30.94H166V28.58h4.07v-2H166V24h4.64V22h-7Zm17.5-11H178.8v6.59L175,22h-2.14V33h2.34V26.33L179.06,33h2.1ZM190,24.1h2c1.76,0,2.64,1.58,2.64,3.41s-.88,3.36-2.64,3.36h-2Zm2,8.9c3.17,0,5-2.37,5-5.49S195.17,22,192,22h-4.32V33Zm9.68-4.64,1.12-3.84L204,28.36Zm3,2,1,2.61h2.46l-4.08-11h-2.54l-4.1,11h2.5l1-2.61Zm2.94-6.3h3V33H213V24.09h3V22h-8.32Zm12.05,4.27,1.12-3.84L222,28.36Zm3,2,1,2.61h2.46l-4.08-11h-2.54l-4.1,11H218l1-2.61Zm14.1-1.31L233.52,22h-1.94l-1.36,11h2.36l.78-6.61L236,31.74h1.81l2.58-5.35L241.1,33h2.35l-1.34-11h-2Zm11.45-.72,1.12-3.84,1.17,3.84Zm3,2,1,2.61h2.46L250.7,22h-2.54l-4.1,11h2.5l1-2.61Zm2.94-6.3h3V33h2.37V24.09h3V22h-8.32ZM268.54,31a1.88,1.88,0,0,1-1.9-1.85V22h-2.38v7.09a4.1,4.1,0,0,0,4.1,4.1h.18a4.1,4.1,0,0,0,4.26-3.92V22h-2.35v7.09A1.88,1.88,0,0,1,268.57,31h0ZM279.7,24a1.56,1.56,0,0,1-.05,3.1h-2V24Zm1,5.06a3.4,3.4,0,0,0,2.75-3.5,3.46,3.46,0,0,0-3.3-3.62H275.3V33h2.35V29.19h.53L280.64,33h2.82ZM285.5,22V33h2.34V22Zm4.1,2.11h3V33H295V24.09h3V22H289.6ZM304.78,33V28L309.06,22h-2.79l-2.69,4.12L300.93,22h-2.79l4.26,6v5ZM143.63,42.1h2c1.76,0,2.64,1.58,2.64,3.41s-.88,3.36-2.64,3.36h-2Zm2,8.9c3.16,0,5-2.37,5-5.49s-1.81-5.53-5-5.53H141.3V51Zm9.68-4.64,1.12-3.84,1.16,3.84Zm3,2,1,2.61h2.47L157.7,40h-2.55l-4.09,11h2.5l1-2.61Zm4.08-.62c0,2,1.6,3.41,4,3.41,2,0,3.93-1,4-3.24,0-1-.35-2.56-3-3.32l-1.31-.42c-1.07-.3-1.19-.83-1.19-1.12,0-.66.61-1.1,1.43-1.1s1.42.51,1.42,1.25h2.34c0-2.11-1.6-3.38-3.73-3.38s-3.79,1.33-3.79,3.3c0,1,.41,2.42,2.85,3.17l1.32.37c1.12.32,1.35.75,1.33,1.25,0,.72-.67,1.16-1.61,1.16a1.45,1.45,0,0,1-1.64-1.26.13.13,0,0,1,0-.06ZM178.59,40v4.5h-3.92V40h-2.33V51h2.33V46.57h3.92V51H181V40Zm12.66,3.07A3,3,0,0,0,188.42,40a3.24,3.24,0,0,0-.44,0h-4.41V51h4.73a3.32,3.32,0,0,0,3.51-3.12,2.26,2.26,0,0,0,0-.26,2.67,2.67,0,0,0-2.08-2.51A2.18,2.18,0,0,0,191.25,43.05Zm-5.33,1.28V42h1.82c.69,0,1,.46,1,1.15a1,1,0,0,1-.94,1.13h-1.92Zm2.21,1.93a1.24,1.24,0,0,1,1.23,1.24v.08a1.25,1.25,0,0,1-1.14,1.35h-2.3V46.26Zm7.34-.75a3.26,3.26,0,1,1,3.25,3.33,3.25,3.25,0,0,1-3.25-3.33Zm-2.33,0a5.59,5.59,0,1,0,5.58-5.66,5.59,5.59,0,0,0-5.58,5.66Zm15.8.85,1.12-3.84,1.17,3.84Zm3,2L213,51h2.46l-4.08-11H208.8l-4.1,11h2.5l1-2.61ZM221.06,42a1.57,1.57,0,0,1-.05,3.1h-2V42Zm1,5.06a3.4,3.4,0,0,0,2.75-3.5,3.46,3.46,0,0,0-3.3-3.62h-4.87V51H219V47.19h.53L222,51h2.82Zm7.12-5h2c1.76,0,2.64,1.58,2.64,3.41s-.88,3.36-2.64,3.36h-2Zm2,8.9c3.17,0,5-2.37,5-5.49s-1.81-5.53-5-5.53h-4.32V51Z" transform="translate(0)" style="fill:#202326"/></g><path id="Path_603" data-name="Path 603" d="M35,0C15.75,0,0,15.22,0,34v1H21V34c0-7.68,6.12-13,14-13Z" transform="translate(0)" style="fill:#14bee1"/><path id="Path_663" data-name="Path 663" d="M94,70c19.25,0,35-15.22,35-34V35H108v1c0,7.68-6.12,13-14,13Z" transform="translate(0)" style="fill:#fb6128"/><path id="Path_662" data-name="Path 662" d="M129,35c0-19.25-15.22-35-34-35H94V21h1c7.68,0,13,6.13,13,14Z" transform="translate(0)" style="fill:#fb8153"/><path id="Path_664" data-name="Path 664" d="M0,35A35,35,0,0,1,35,70H0" transform="translate(0)" style="fill:#2956d1;opacity:0.6620000004768372;isolation:isolate"/></g></g></g></svg>
