<svg xmlns="http://www.w3.org/2000/svg" xmlns:xlink="http://www.w3.org/1999/xlink" viewBox="0 0 321 70">
  <defs>
    <style>
      .cls-1 {
        clip-path: url(#clip-logo-paths);
      }

      .cls-2 {
        fill: #b4e1ea;
      }

      .cls-15, .cls-3 {
        fill: #2956d1;
      }

      .cls-4 {
        fill: #ad9300;
      }

      .cls-5 {
        fill: #491c8b;
      }

      .cls-6 {
        fill: #624093;
      }

      .cls-7 {
        fill: #199f8b;
      }

      .cls-8 {
        fill: #32b8ab;
      }

      .cls-9 {
        fill: #feb8a9;
      }

      .cls-10 {
        fill: #faf5d5;
      }

      .cls-11 {
        fill: #202326;
      }

      .cls-12 {
        fill: #14bee1;
      }

      .cls-13 {
        fill: #fb6128;
      }

      .cls-14 {
        fill: #fb8153;
      }

      .cls-15 {
        opacity: 0.662;
      }
    </style>
    <clipPath id="clip-logo-paths">
      <rect width="321" height="70"/>
    </clipPath>
  </defs>
  <g id="logo-paths" class="cls-1">
    <g id="Group_2540" data-name="Group 2540">
      <rect id="Screen_Shot_2018-06-15_at_2.21.08_PM" data-name="Screen Shot 2018-06-15 at 2.21.08 PM" class="cls-2" width="35" height="35"/>
      <path id="Path_599" data-name="Path 599" class="cls-3" d="M92.7,6.836c-19.25,0-35,15.22-35,34v1h21v-1c0-7.683,6.125-13,14-13Z" transform="translate(-6.836 127.699) rotate(-90)"/>
      <rect id="Screen_Shot_2018-06-15_at_2.21.08_PM-2" data-name="Screen Shot 2018-06-15 at 2.21.08 PM" class="cls-4" width="35" height="35" transform="translate(35)"/>
      <rect id="Screen_Shot_2018-06-15_at_2.21.08_PM-3" data-name="Screen Shot 2018-06-15 at 2.21.08 PM" class="cls-5" width="24" height="35" transform="translate(94 70) rotate(180)"/>
      <rect id="Screen_Shot_2018-06-15_at_2.21.08_PM-4" data-name="Screen Shot 2018-06-15 at 2.21.08 PM" class="cls-6" width="24" height="35" transform="translate(94 35) rotate(180)"/>
      <path id="Path_600" data-name="Path 600" class="cls-7" d="M55.129,24.4a35.012,35.012,0,0,1-35,35v-35" transform="translate(94.372 14.871) rotate(90)"/>
      <path id="Path_601" data-name="Path 601" class="cls-8" d="M55.1,24.4a35.012,35.012,0,0,1-35,35v-35" transform="translate(10.6 55.1) rotate(-90)"/>
      <rect id="Screen_Shot_2018-06-15_at_2.21.08_PM-5" data-name="Screen Shot 2018-06-15 at 2.21.08 PM" class="cls-9" width="35" height="35" transform="translate(94 35)"/>
      <path id="Screen_Shot_2018-06-15_at_2.21.08_PM-6" data-name="Screen Shot 2018-06-15 at 2.21.08 PM" class="cls-10" d="M35.43-.433l-35,35h35Z" transform="translate(163.567 34.57) rotate(90)"/>
      <g id="Group_2498" data-name="Group 2498" transform="translate(-2 -5)">
        <path id="Path_672" data-name="Path 672" class="cls-11" d="M2.992-5.488A3.282,3.282,0,0,1,6.24-8.832,3.3,3.3,0,0,1,9.5-5.488,3.282,3.282,0,0,1,6.24-2.16,3.268,3.268,0,0,1,2.992-5.488Zm-2.336,0A5.6,5.6,0,0,0,6.24.16a5.606,5.606,0,0,0,5.6-5.648,5.6,5.6,0,0,0-5.6-5.664A5.6,5.6,0,0,0,.656-5.488ZM18.288-8.96a1.455,1.455,0,0,1,1.328,1.552,1.466,1.466,0,0,1-1.392,1.552H16.16v-3.1ZM13.808,0H16.16V-3.808h2.176a3.41,3.41,0,0,0,3.632-3.6,3.429,3.429,0,0,0-3.632-3.616H13.808Zm9.84,0h7.12V-2.064H25.984V-4.416h4.064V-6.448H25.984V-8.96h4.64v-2.064H23.648Zm17.5-11.024H38.8v6.592l-3.776-6.592H32.88V0h2.336V-6.672L39.056,0h2.1ZM50.016-8.9H52c1.76,0,2.64,1.584,2.64,3.408,0,1.808-.88,3.36-2.64,3.36H50.016ZM52,0c3.168,0,4.976-2.368,4.976-5.488,0-3.136-1.808-5.536-4.976-5.536H47.68V0Zm9.68-4.64L62.8-8.48l1.168,3.84Zm3.04,2.032L65.7,0H68.16L64.08-11.024H61.536L57.44,0h2.5l.976-2.608Zm2.944-6.3H70.64V0h2.368V-8.912h2.976v-2.112h-8.32ZM79.712-4.64l1.12-3.84L82-4.64Zm3.04,2.032L83.728,0h2.464l-4.08-11.024H79.568L75.472,0h2.5l.976-2.608Zm14.1-1.312-3.328-7.1H91.584L90.224,0h2.352l.784-6.608,2.592,5.344H97.76l2.576-5.344L101.1,0h2.352l-1.344-11.024h-1.968ZM108.3-4.64l1.12-3.84,1.168,3.84Zm3.04,2.032L112.32,0h2.464L110.7-11.024H108.16L104.064,0h2.5l.976-2.608Zm2.944-6.3h2.976V0h2.368V-8.912h2.976v-2.112h-8.32Zm14.256,6.864a1.874,1.874,0,0,1-1.9-1.888v-7.088h-2.384v7.088a4.106,4.106,0,0,0,4.288,4.1,4.089,4.089,0,0,0,4.256-4.1v-7.088h-2.352v7.088A1.883,1.883,0,0,1,128.544-2.048ZM139.7-8.96a1.455,1.455,0,0,1,1.328,1.552,1.466,1.466,0,0,1-1.392,1.552h-1.984v-3.1ZM140.72-3.9a3.409,3.409,0,0,0,2.752-3.5,3.465,3.465,0,0,0-3.664-3.616H135.3V0h2.352V-3.808h.528L140.64,0h2.816Zm4.784-7.12V0h2.336V-11.024Zm4.1,2.112h2.976V0h2.368V-8.912h2.976v-2.112H149.6ZM164.784,0V-4.96l4.272-6.064h-2.784L163.584-6.9l-2.656-4.128h-2.784L162.4-4.992V0ZM3.632,9.1H5.616c1.76,0,2.64,1.584,2.64,3.408,0,1.808-.88,3.36-2.64,3.36H3.632ZM5.616,18c3.168,0,4.976-2.368,4.976-5.488,0-3.136-1.808-5.536-4.976-5.536H1.3V18Zm9.68-4.64,1.12-3.84,1.168,3.84Zm3.04,2.032L19.312,18h2.464L17.7,6.976H15.152L11.056,18h2.5l.976-2.608Zm4.08-.624c0,1.984,1.6,3.408,4,3.408,1.952,0,3.936-1.04,3.968-3.232.032-1.056-.352-2.56-3.024-3.328L26.048,11.2c-1.072-.3-1.184-.832-1.184-1.12,0-.656.608-1.1,1.424-1.1.928,0,1.424.512,1.424,1.248h2.336c0-2.112-1.6-3.376-3.728-3.376-2.112,0-3.792,1.328-3.792,3.3,0,.992.416,2.416,2.848,3.168l1.328.368c1.12.32,1.344.752,1.328,1.248-.016.72-.672,1.168-1.616,1.168a1.463,1.463,0,0,1-1.648-1.328ZM38.592,6.976v4.5h-3.92v-4.5H32.336V18h2.336V13.568h3.92V18H40.96V6.976Zm12.656,3.072a2.961,2.961,0,0,0-3.264-3.072H43.568V18H48.3a3.325,3.325,0,0,0,3.52-3.376,2.677,2.677,0,0,0-2.08-2.512A2.176,2.176,0,0,0,51.248,10.048Zm-5.328,1.28V9.04h1.824c.688,0,1.04.464,1.04,1.152a1.041,1.041,0,0,1-1.024,1.136Zm2.208,1.936a1.237,1.237,0,0,1,1.232,1.312,1.252,1.252,0,0,1-1.184,1.36H45.92V13.264Zm7.344-.752A3.257,3.257,0,1,1,58.72,15.84,3.282,3.282,0,0,1,55.472,12.512Zm-2.336,0A5.592,5.592,0,1,0,58.72,6.848,5.6,5.6,0,0,0,53.136,12.512Zm15.808.848,1.12-3.84,1.168,3.84Zm3.04,2.032L72.96,18h2.464L71.344,6.976H68.8L64.7,18h2.5l.976-2.608ZM81.056,9.04a1.455,1.455,0,0,1,1.328,1.552,1.466,1.466,0,0,1-1.392,1.552H79.008V9.04ZM82.08,14.1a3.409,3.409,0,0,0,2.752-3.5,3.465,3.465,0,0,0-3.664-3.616H76.656V18h2.352V14.192h.528L82,18h2.816ZM89.2,9.1h1.984c1.76,0,2.64,1.584,2.64,3.408,0,1.808-.88,3.36-2.64,3.36H89.2ZM91.184,18c3.168,0,4.976-2.368,4.976-5.488,0-3.136-1.808-5.536-4.976-5.536h-4.32V18Z" transform="translate(142 38)"/>
      </g>
      <path id="Path_603" data-name="Path 603" class="cls-12" d="M92.7,6.836c-19.25,0-35,15.22-35,34v1h21v-1c0-7.683,6.125-13,14-13Z" transform="translate(-57.7 -6.836)"/>
      <path id="Path_663" data-name="Path 663" class="cls-13" d="M92.7,6.836c-19.25,0-35,15.22-35,34v1h21v-1c0-7.683,6.125-13,14-13Z" transform="translate(186.7 76.836) rotate(180)"/>
      <path id="Path_662" data-name="Path 662" class="cls-14" d="M92.7,6.836c-19.25,0-35,15.22-35,34v1h21v-1c0-7.683,6.125-13,14-13Z" transform="translate(135.836 -57.699) rotate(90)"/>
      <path id="Path_664" data-name="Path 664" class="cls-15" d="M55.129,24.4a35.012,35.012,0,0,1-35,35v-35" transform="translate(-24.401 90.129) rotate(-90)"/>
    </g>
  </g>
</svg>
