<svg xmlns="http://www.w3.org/2000/svg" xmlns:xlink="http://www.w3.org/1999/xlink" viewBox="0 0 166 70">
  <defs>
    <style>
      .cls-1 {
        clip-path: url(#clip-logo-name);
      }

      .cls-2 {
        fill: #202326;
      }
    </style>
    <clipPath id="clip-logo-name">
      <rect width="166" height="70"/>
    </clipPath>
  </defs>
  <g id="logo-name" class="cls-1">
    <path id="Path_692" data-name="Path 692" class="cls-2" d="M2.81-5.93A3.026,3.026,0,0,1,5.8-9.013,3.038,3.038,0,0,1,8.814-5.93,3.026,3.026,0,0,1,5.8-2.862,3.013,3.013,0,0,1,2.81-5.93Zm-2.154,0A5.166,5.166,0,0,0,5.8-.723,5.169,5.169,0,0,0,10.967-5.93,5.163,5.163,0,0,0,5.8-11.152,5.16,5.16,0,0,0,.656-5.93Zm16.256-3.2A1.342,1.342,0,0,1,18.137-7.7a1.352,1.352,0,0,1-1.283,1.431h-1.9V-9.131ZM12.782-.87H14.95V-4.381h2.006A3.143,3.143,0,0,0,20.305-7.7a3.162,3.162,0,0,0-3.349-3.334H12.782Zm9.072,0h6.564v-1.9H24.008V-4.942h3.747V-6.815H24.008V-9.131h4.278v-1.9H21.854ZM37.992-11.034H35.824v6.078l-3.481-6.078H30.366V-.87h2.154V-7.022L36.06-.87h1.932Zm8.172,1.962h1.829c1.623,0,2.434,1.46,2.434,3.142s-.811,3.1-2.434,3.1H46.165Zm1.829,8.2c2.921,0,4.588-2.183,4.588-5.06s-1.667-5.1-4.588-5.1H44.011V-.87Zm8.925-4.278,1.033-3.54,1.077,3.54Zm2.8,1.873.9,2.4h2.272L59.131-11.034H56.786L53.009-.87h2.3l.9-2.4Zm2.714-5.812h2.744V-.87h2.183V-9.087h2.744v-1.947H62.436ZM73.543-5.148l1.033-3.54,1.077,3.54Zm2.8,1.873.9,2.4h2.272L75.756-11.034H73.411L69.634-.87h2.3l.9-2.4Zm13-1.21-3.068-6.55H84.489L83.235-.87H85.4l.723-6.092,2.39,4.927h1.667l2.375-4.927L93.266-.87h2.168L94.2-11.034H92.381ZM99.9-5.148l1.033-3.54,1.077,3.54Zm2.8,1.873.9,2.4h2.272l-3.762-10.164H99.772L96-.87h2.3l.9-2.4Zm2.714-5.812h2.744V-.87h2.183V-9.087h2.744v-1.947h-7.671Zm13.144,6.328A1.727,1.727,0,0,1,116.81-4.5v-6.535h-2.2V-4.5a3.786,3.786,0,0,0,3.953,3.776A3.77,3.77,0,0,0,122.489-4.5v-6.535h-2.168V-4.5A1.736,1.736,0,0,1,118.565-2.758Zm10.282-6.373A1.342,1.342,0,0,1,130.072-7.7a1.352,1.352,0,0,1-1.283,1.431h-1.829V-9.131Zm.944,4.661A3.143,3.143,0,0,0,132.329-7.7a3.2,3.2,0,0,0-3.378-3.334h-4.16V-.87h2.168V-4.381h.487L129.717-.87h2.6Zm4.411-6.564V-.87h2.154V-11.034Zm3.776,1.947h2.744V-.87h2.183V-9.087h2.744v-1.947h-7.671Zm14,8.217V-5.443l3.939-5.591h-2.567l-2.478,3.806-2.449-3.806h-2.567l3.924,5.561v4.6ZM3.4,6.523H5.229c1.623,0,2.434,1.46,2.434,3.142s-.811,3.1-2.434,3.1H3.4Zm1.829,8.2c2.921,0,4.588-2.183,4.588-5.06a6.821,6.821,0,0,0-.4-2.281A4.178,4.178,0,0,0,5.229,4.562H1.246V14.725Zm8.925-4.278,1.033-3.54,1.077,3.54Zm2.8,1.873.9,2.4h2.272L16.366,4.562H14.021L10.245,14.725h2.3l.9-2.4Zm3.762-.575c0,1.829,1.475,3.142,3.688,3.142,1.8,0,3.629-.959,3.658-2.98.03-.974-.325-2.36-2.788-3.068l-1.21-.384c-.988-.28-1.092-.767-1.092-1.033,0-.6.561-1.018,1.313-1.018.856,0,1.313.472,1.313,1.151h2.154c0-1.947-1.475-3.113-3.437-3.113s-3.5,1.224-3.5,3.039c0,.915.384,2.227,2.626,2.921l1.224.339c1.033.3,1.239.693,1.224,1.151-.015.664-.62,1.077-1.49,1.077a1.349,1.349,0,0,1-1.519-1.224ZM35.632,4.562V8.707H32.018V4.562H29.864V14.725h2.154V10.639h3.614v4.086h2.183V4.562ZM47.3,7.394a2.73,2.73,0,0,0-3.009-2.832H40.22V14.725h4.366a3.065,3.065,0,0,0,3.245-3.113A2.468,2.468,0,0,0,45.914,9.3,2.006,2.006,0,0,0,47.3,7.394Zm-4.912,1.18V6.464H44.07c.634,0,.959.428.959,1.062a.96.96,0,0,1-.944,1.047Zm2.036,1.785a1.14,1.14,0,0,1,1.136,1.21,1.154,1.154,0,0,1-1.092,1.254h-2.08V10.359Zm6.771-.693a3,3,0,1,1,6,0,3,3,0,1,1-6,0Zm-2.154,0a5.156,5.156,0,1,0,10.311,0,5.156,5.156,0,1,0-10.311,0Zm14.575.782,1.033-3.54,1.077,3.54Zm2.8,1.873.9,2.4H69.59L65.828,4.562H63.483L59.707,14.725h2.3l.9-2.4Zm8.364-5.856A1.342,1.342,0,0,1,76.007,7.9a1.352,1.352,0,0,1-1.283,1.431H72.894V6.464Zm.944,4.661A3.143,3.143,0,0,0,78.264,7.9a3.2,3.2,0,0,0-3.378-3.334h-4.16V14.725h2.168V11.214h.487l2.272,3.511h2.6Zm6.564-4.6H84.12c1.623,0,2.434,1.46,2.434,3.142s-.811,3.1-2.434,3.1H82.291Zm1.829,8.2c2.921,0,4.588-2.183,4.588-5.06s-1.667-5.1-4.588-5.1H80.137V14.725Z" transform="translate(5.57 35.145)"/>
  </g>
</svg>
