<svg xmlns="http://www.w3.org/2000/svg" xmlns:xlink="http://www.w3.org/1999/xlink" viewBox="0 0 38 38">
  <defs>
    <style>
      .cls-1 {
        clip-path: url(#clip-open-data);
      }

      .cls-2 {
        fill: none;
        stroke: #202326;
        stroke-width: 2px;
      }

      .cls-3 {
        fill: #fff;
      }
    </style>
    <clipPath id="clip-open-data">
      <rect width="38" height="38"/>
    </clipPath>
  </defs>
  <g id="open-data" class="cls-1">
    <rect class="cls-3" width="38" height="38"/>
    <path id="Path_431" data-name="Path 431" class="cls-2" d="M9.383,0A9.491,9.491,0,0,1,17.8,5.2a8.974,8.974,0,0,1,.968,4.133A9.437,9.437,0,0,1,15.4,16.494a9.19,9.19,0,0,1-6.019,2.172,9.564,9.564,0,0,1-5.967-2.13A9.162,9.162,0,0,1,0,9.333a9.437,9.437,0,0,1,2.751-6.6" transform="translate(29.333 10.691) rotate(90)"/>
    <path id="Path_430" data-name="Path 430" class="cls-2" d="M14,0a14.215,14.215,0,0,1,6.484,1.589A13.929,13.929,0,0,1,28,14a14.116,14.116,0,0,1-4.1,9.9A13.8,13.8,0,0,1,14,28,14.1,14.1,0,0,1,1.386,20.082,13.645,13.645,0,0,1,0,14,14.208,14.208,0,0,1,1.65,7.4" transform="translate(6 6)"/>
    <path id="Path_432" data-name="Path 432" class="cls-2" d="M4.685.011a4.839,4.839,0,0,1,3.83,1.983,4.455,4.455,0,0,1,.866,2.7,4.83,4.83,0,0,1-.963,2.845A4.529,4.529,0,0,1,4.707,9.357,4.893,4.893,0,0,1,1.77,8.32,4.55,4.55,0,0,1,.011,4.673,4.817,4.817,0,0,1,1.076,1.7" transform="translate(18.133 26.325) rotate(-120)"/>
  </g>
</svg>
